<svg width="20" height="20" viewBox="0 0 20 20" fill="none" xmlns="http://www.w3.org/2000/svg">
<path d="M6.66667 11.6665C6.43056 11.6665 6.2325 11.5865 6.0725 11.4265C5.91306 11.2671 5.83333 11.0693 5.83333 10.8332C5.83333 10.5971 5.91306 10.399 6.0725 10.239C6.2325 10.0796 6.43056 9.99984 6.66667 9.99984C6.90278 9.99984 7.10083 10.0796 7.26083 10.239C7.42028 10.399 7.5 10.5971 7.5 10.8332C7.5 11.0693 7.42028 11.2671 7.26083 11.4265C7.10083 11.5865 6.90278 11.6665 6.66667 11.6665ZM10 11.6665C9.76389 11.6665 9.56611 11.5865 9.40667 11.4265C9.24667 11.2671 9.16667 11.0693 9.16667 10.8332C9.16667 10.5971 9.24667 10.399 9.40667 10.239C9.56611 10.0796 9.76389 9.99984 10 9.99984C10.2361 9.99984 10.4342 10.0796 10.5942 10.239C10.7536 10.399 10.8333 10.5971 10.8333 10.8332C10.8333 11.0693 10.7536 11.2671 10.5942 11.4265C10.4342 11.5865 10.2361 11.6665 10 11.6665ZM13.3333 11.6665C13.0972 11.6665 12.8994 11.5865 12.74 11.4265C12.58 11.2671 12.5 11.0693 12.5 10.8332C12.5 10.5971 12.58 10.399 12.74 10.239C12.8994 10.0796 13.0972 9.99984 13.3333 9.99984C13.5694 9.99984 13.7672 10.0796 13.9267 10.239C14.0867 10.399 14.1667 10.5971 14.1667 10.8332C14.1667 11.0693 14.0867 11.2671 13.9267 11.4265C13.7672 11.5865 13.5694 11.6665 13.3333 11.6665ZM4.16667 18.3332C3.70833 18.3332 3.31583 18.1701 2.98917 17.844C2.66306 17.5173 2.5 17.1248 2.5 16.6665V4.99984C2.5 4.5415 2.66306 4.14928 2.98917 3.82317C3.31583 3.4965 3.70833 3.33317 4.16667 3.33317H5V1.6665H6.66667V3.33317H13.3333V1.6665H15V3.33317H15.8333C16.2917 3.33317 16.6842 3.4965 17.0108 3.82317C17.3369 4.14928 17.5 4.5415 17.5 4.99984V16.6665C17.5 17.1248 17.3369 17.5173 17.0108 17.844C16.6842 18.1701 16.2917 18.3332 15.8333 18.3332H4.16667ZM4.16667 16.6665H15.8333V8.33317H4.16667V16.6665Z" fill="#F49B33"/>
</svg>
