<svg width="20" height="20" viewBox="0 0 20 20" fill="none" xmlns="http://www.w3.org/2000/svg">
<path d="M13.3334 14.1669V15.8335H1.66675V14.1669C1.66675 14.1669 1.66675 10.8335 7.50008 10.8335C13.3334 10.8335 13.3334 14.1669 13.3334 14.1669ZM10.4167 6.25021C10.4167 5.67334 10.2457 5.10944 9.9252 4.62979C9.60471 4.15015 9.14919 3.77631 8.61624 3.55556C8.08329 3.3348 7.49684 3.27704 6.93107 3.38958C6.36529 3.50212 5.84559 3.77991 5.43769 4.18781C5.02978 4.59572 4.752 5.11542 4.63946 5.68119C4.52692 6.24697 4.58468 6.83342 4.80543 7.36637C5.02619 7.89932 5.40002 8.35484 5.87967 8.67533C6.35931 8.99581 6.92322 9.16687 7.50008 9.16687C8.27363 9.16687 9.01549 8.85958 9.56247 8.3126C10.1095 7.76562 10.4167 7.02375 10.4167 6.25021ZM13.2834 10.8335C13.7957 11.23 14.2149 11.7339 14.5115 12.3098C14.8081 12.8857 14.9748 13.5196 15.0001 14.1669V15.8335H18.3334V14.1669C18.3334 14.1669 18.3334 11.1419 13.2834 10.8335ZM12.5001 3.33354C11.9265 3.33035 11.3655 3.50184 10.8917 3.82521C11.3979 4.53249 11.6701 5.38045 11.6701 6.25021C11.6701 7.11997 11.3979 7.96793 10.8917 8.67521C11.3655 8.99858 11.9265 9.17007 12.5001 9.16687C13.2736 9.16687 14.0155 8.85958 14.5625 8.3126C15.1095 7.76562 15.4167 7.02375 15.4167 6.25021C15.4167 5.47666 15.1095 4.73479 14.5625 4.18781C14.0155 3.64083 13.2736 3.33354 12.5001 3.33354Z" fill="#F49B33"/>
</svg>
