<svg width="14" height="14" viewBox="0 0 14 14" fill="none" xmlns="http://www.w3.org/2000/svg">
<path d="M0.407145 9.38698C0.846522 10.5474 1.59765 11.5639 2.57779 12.3248C3.55793 13.0856 4.72905 13.5611 5.96214 13.699C7.19524 13.8369 8.44246 13.6317 9.56642 13.1061C10.6904 12.5805 11.6475 11.7549 12.3323 10.7202C13.017 9.68553 13.403 8.48191 13.4475 7.24193C13.492 6.00195 13.1935 4.77374 12.5847 3.69259C11.9759 2.61144 11.0805 1.71929 9.99711 1.11443C8.91375 0.509574 7.68446 0.215468 6.44465 0.264513" stroke="black" stroke-width="0.5"/>
<circle cx="1.55556" cy="4.30158" r="0.518519" fill="black"/>
<circle cx="2.59259" cy="2.2275" r="0.518519" fill="black"/>
<circle cx="4.66667" cy="1.19047" r="0.518519" fill="black"/>
<circle cx="0.518519" cy="6.37565" r="0.518519" fill="black"/>
<circle cx="0.518519" cy="8.44973" r="0.518519" fill="black"/>
<path d="M6.74074 1.70898V7.41269L4.14815 9.48676" stroke="black" stroke-width="0.5" stroke-linecap="round" stroke-linejoin="round"/>
</svg>
