<svg width="19" height="21" viewBox="0 0 19 21" fill="none" xmlns="http://www.w3.org/2000/svg">
<path d="M0.20524 10.7685C-0.917503 13.2304 2.88117 18.986 4.0068 20.8342C6.21778 20.348 10.5948 17.5204 12.0618 16.121C14.5767 13.7222 14.8792 11.5793 14.5395 7.96242C14.1148 3.44135 9.14594 -0.657282 9.42754 0.0883213C9.70913 0.833925 6.52531 3.72602 6.2914 4.23891C6.0575 4.75179 1.60867 7.69119 0.20524 10.7685Z" fill="#0C6C16"/>
<path fill-rule="evenodd" clip-rule="evenodd" d="M3.80458 19.9913C3.84868 20.2155 3.88794 20.4152 3.92 20.5853C8.0563 16.6028 16.3289 7.52262 16.3289 3.06226C16.3289 3.59326 14.5498 4.47829 13.2452 5.12731C12.5929 5.45182 12.0592 5.71732 11.9258 5.85007C11.8097 5.96552 11.29 6.1479 10.5519 6.40692C8.74385 7.04138 5.62549 8.13567 3.92003 9.83247C2.15258 11.5909 3.29812 17.416 3.80458 19.9913Z" fill="#4AB425"/>
<path d="M18.3303 12.2221C19.5312 7.84137 16.3289 2.26575 16.3289 3.06226C16.3289 7.52262 8.0563 16.6028 3.92 20.5853C6.1616 20.9039 11.2586 19.7888 13.1266 18.9923C16.3289 17.6268 17.3696 15.7268 18.3303 12.2221Z" fill="#4AB425"/>
<path d="M18.7305 12.2226C19.9314 7.84187 16.7291 2.26626 16.7291 3.06276C16.7291 7.52312 8.45654 16.6033 4.32025 20.5858C6.56184 20.9044 11.6588 19.7893 13.5268 18.9928C16.7291 17.6273 17.7699 15.7273 18.7305 12.2226Z" fill="#72CB53"/>
</svg>
