<svg width="15" height="15" viewBox="0 0 15 15" fill="none" xmlns="http://www.w3.org/2000/svg">
<path d="M13.0743 2.89674L9.35372 12.9467C9.11872 13.5817 8.44185 13.908 7.84247 13.6749C7.69404 13.6161 7.55939 13.5272 7.44699 13.4138C7.33459 13.3004 7.24687 13.165 7.18935 13.0161L6.00997 10.0349C5.78834 9.46258 5.34898 9.00143 4.7881 8.75236L1.94935 7.51424C1.35872 7.25611 1.08997 6.54049 1.3481 5.91549C1.40915 5.76458 1.49953 5.62727 1.614 5.51152C1.72846 5.39576 1.86475 5.30385 2.01497 5.24112L11.5875 1.33487C12.1918 1.08799 12.8625 1.39799 13.0843 2.02799C13.1825 2.30674 13.1787 2.61549 13.075 2.89674H13.0743Z" fill="#F49B33"/>
</svg>
