<svg width="23" height="14" viewBox="0 0 23 14" fill="none" xmlns="http://www.w3.org/2000/svg">
<path d="M10.9474 5.85317C10.9474 5.85317 8.84576 5.85317 7.57885 5.85317C6.73767 5.85317 5.14563 5.69818 4.29018 5.85317C3.43472 6.00815 1.0015 12.0525 1.0015 12.0525H1.45041L2.45191 10.015L4.79613 7.73993L7.45941 9.51424L8.46091 12.0525H8.84373H15.4211V11.2439L19.7217 8.46094L21.4601 9.56604H21.9984L20.1141 6.25073L13.8872 10.4098C13.101 10.9349 12.0951 11.0839 11.2893 10.5894C10.691 10.2224 10.0734 9.71215 9.85563 9.08761C9.35477 7.6509 10.9474 5.85317 10.9474 5.85317Z" fill="black"/>
<path d="M14.9151 1.0015H17.6979L18.3272 2.61872M18.3272 2.61872H20.4806M18.3272 2.61872L20.1141 6.25073M20.1141 6.25073L21.9984 9.56604H21.4601L19.7217 8.46094L15.4211 11.2439V12.0525H8.84373H8.46091L7.45941 9.51424L4.79613 7.73993L2.45191 10.015L1.45041 12.0525H1.0015C1.0015 12.0525 3.43472 6.00815 4.29018 5.85317C5.14563 5.69818 6.73767 5.85317 7.57885 5.85317C8.84576 5.85317 10.9474 5.85317 10.9474 5.85317C10.9474 5.85317 9.35477 7.6509 9.85563 9.08761C10.0734 9.71215 10.691 10.2224 11.2893 10.5894C12.0951 11.0839 13.101 10.9349 13.8872 10.4098L20.1141 6.25073Z" stroke="black" stroke-width="2" stroke-linecap="round" stroke-linejoin="round"/>
</svg>
