<svg width="21" height="15" viewBox="0 0 21 15" fill="none" xmlns="http://www.w3.org/2000/svg">
<path fill-rule="evenodd" clip-rule="evenodd" d="M10.3338 3.57406C12.5586 3.57416 14.6982 4.41185 16.3106 5.914C16.432 6.02997 16.6261 6.02851 16.7457 5.91072L17.9063 4.76289C17.9668 4.70315 18.0006 4.62222 18.0001 4.53802C17.9996 4.45382 17.9649 4.37329 17.9036 4.31425C13.6717 0.339912 6.99533 0.339912 2.7634 4.31425C2.7021 4.37325 2.66732 4.45376 2.66676 4.53795C2.66619 4.62215 2.69989 4.7031 2.76039 4.76289L3.92134 5.91072C4.04084 6.02869 4.23506 6.03015 4.3564 5.914C5.96897 4.41175 8.10888 3.57405 10.3338 3.57406ZM10.3322 7.29961C11.556 7.29954 12.736 7.75614 13.6431 8.5807C13.7658 8.69772 13.9591 8.69519 14.0787 8.57498L15.2392 7.39782C15.3004 7.33608 15.3343 7.25231 15.3334 7.16527C15.3325 7.07823 15.2969 6.99518 15.2346 6.93469C12.4723 4.35532 8.19453 4.35532 5.43224 6.93469C5.36985 6.99518 5.33425 7.07827 5.33343 7.16534C5.33261 7.25241 5.36664 7.33617 5.42789 7.39782L6.58814 8.57498C6.70774 8.69519 6.901 8.69772 7.02369 8.5807C7.93019 7.75669 9.10931 7.30012 10.3322 7.29961ZM12.6667 10.0232C12.6685 10.1087 12.6342 10.191 12.5719 10.2509L10.5571 12.242C10.498 12.3006 10.4175 12.3335 10.3335 12.3335C10.2495 12.3335 10.169 12.3006 10.1099 12.242L8.0948 10.2509C8.03255 10.191 7.99831 10.1086 8.00015 10.0231C8.002 9.93768 8.03977 9.85676 8.10455 9.79948C9.39126 8.73372 11.2757 8.73372 12.5625 9.79948C12.6272 9.8568 12.6649 9.93775 12.6667 10.0232Z" fill="black"/>
</svg>
