<svg width="68" height="66" viewBox="0 0 68 66" fill="none" xmlns="http://www.w3.org/2000/svg">
<path d="M12.1139 59.5594C6.86458 60.367 2.52381 62.5878 1.00959 63.5973C-0.504635 63.5973 1.00959 65.6163 1.51433 65.6163C1.91812 65.6163 10.7679 64.2703 15.1423 63.5973C16.3201 61.9149 17.3632 58.7518 12.1139 59.5594Z" fill="white"/>
<path d="M33.8177 63.5973C32.2026 64.4049 24.3959 63.2608 20.6945 62.5878C22.7135 60.7371 26.9533 57.0357 27.7609 57.0357C28.7703 57.0357 35.8367 62.5878 33.8177 63.5973Z" fill="white"/>
<path d="M12.1139 59.5594C6.86458 60.367 2.52381 62.5878 1.00959 63.5973C-0.504635 63.5973 1.00959 65.6163 1.51433 65.6163C1.91812 65.6163 10.7679 64.2703 15.1423 63.5973C16.3201 61.9149 17.3632 58.7518 12.1139 59.5594Z" stroke="white" stroke-width="0.5"/>
<path d="M33.8177 63.5973C32.2026 64.4049 24.3959 63.2608 20.6945 62.5878C22.7135 60.7371 26.9533 57.0357 27.7609 57.0357C28.7703 57.0357 35.8367 62.5878 33.8177 63.5973Z" stroke="white" stroke-width="0.5"/>
<path d="M15.1425 12.6185C13.5273 12.6185 13.46 18.3389 13.6283 21.1991L17.1614 20.1896L18.1709 15.1422C18.6757 15.3105 19.6851 15.3441 19.6851 14.1327C19.6851 12.6185 17.1615 12.6185 15.1425 12.6185Z" fill="#D3AC88"/>
<path d="M62.5881 63.5973C56.5312 64.0011 55.69 61.7466 56.0265 60.5689C57.3724 59.8959 59.9634 58.7518 59.5596 59.5594C59.1558 60.367 60.4009 61.2419 61.0739 61.5784C61.7469 61.7466 63.4966 61.9822 65.1118 61.5784C66.727 61.1746 67.1308 62.0831 67.1308 62.5878C68.1402 62.7561 68.645 63.1935 62.5881 63.5973Z" fill="#D3AC88"/>
<path d="M15.1425 12.6185C13.5273 12.6185 13.46 18.3389 13.6283 21.1991L17.1614 20.1896L18.1709 15.1422C18.6757 15.3105 19.6851 15.3441 19.6851 14.1327C19.6851 12.6185 17.1615 12.6185 15.1425 12.6185Z" stroke="#D3AC88" stroke-width="0.5"/>
<path d="M62.5881 63.5973C56.5312 64.0011 55.69 61.7466 56.0265 60.5689C57.3724 59.8959 59.9634 58.7518 59.5596 59.5594C59.1558 60.367 60.4009 61.2419 61.0739 61.5784C61.7469 61.7466 63.4966 61.9822 65.1118 61.5784C66.727 61.1746 67.1308 62.0831 67.1308 62.5878C68.1402 62.7561 68.645 63.1935 62.5881 63.5973Z" stroke="#D3AC88" stroke-width="0.5"/>
<path d="M37.9655 23.4949L39.4797 19.457L43.0129 20.4665L47.5555 29.047C49.238 28.5423 52.6029 27.129 52.6029 25.5139C52.6029 23.4949 49.5745 19.457 52.6029 20.4665C55.6314 21.4759 57.6504 19.457 56.6409 18.4475C55.8333 17.6399 57.6885 15.5882 56.6409 14.4096C55.9357 13.6162 54.9248 18.2456 54.1172 13.4001C53.1077 7.3432 51.0887 7.84794 50.584 8.85742C50.0792 9.8669 49.0698 5.82897 47.5555 2.80053C46.0413 -0.227914 40.9939 0.276827 40.9939 1.28631C40.9939 2.29579 37.9655 2.29579 36.4512 2.80053C34.937 3.30527 33.4228 6.33371 33.9275 7.84794C34.3313 9.05931 35.1053 10.3716 35.4418 10.8764C35.2735 11.8859 34.7351 14.0058 33.9275 14.4096C32.9181 14.9143 33.4228 17.438 33.4228 18.4475C33.4228 19.2551 34.4323 19.457 34.937 19.457L33.9275 23.4949H37.9655Z" fill="black" stroke="black"/>
<path d="M39.4797 18.9524V22.9903L37.9655 27.0283L40.9939 31.5709L47.5555 28.0378L45.5366 22.9903L44.5271 19.9619L44.0224 16.9335L39.4797 18.9524Z" fill="#D3AC88" stroke="#D3AC88"/>
<path d="M41.4987 5.82892C41.0949 7.04029 41.6669 8.35261 42.5082 9.36209C43.5177 10.7546 45.0318 10.3716 46.0413 10.3716C47.0508 10.3716 47.0508 11.8039 47.0508 13.4C47.0508 13.9048 46.0413 15.2507 45.0318 15.419C45.5366 16.4285 44.4261 18.5484 42.0034 18.9522C38.9749 19.4569 37.4607 19.4569 36.4512 17.4379C35.4418 15.419 36.4513 11.3811 35.9465 10.3716C35.4418 9.3621 36.4513 5.82891 36.956 4.81943C37.4608 3.80995 42.0034 4.31469 41.4987 5.82892Z" fill="#D3AC88" stroke="#D3AC88"/>
<path d="M39.4797 15.4192C39.9844 15.924 41.1958 16.6306 42.0034 15.4192" stroke="#B69272" stroke-width="0.5"/>
<path d="M36.956 9.06544C38.0917 8.11534 39.2273 8.11534 39.6059 9.06544C40.1138 10.3401 38.0917 12.8658 38.4702 13.8159C38.8488 14.766 39.9844 14.291 39.9844 14.291" stroke="#B69272" stroke-width="0.5"/>
<path d="M26.3564 47.2179L31.4038 44.6942V35.1041C28.8801 37.2913 23.5299 41.7667 22.3185 42.1705C20.8043 42.6752 13.7379 44.6942 13.7379 37.1231C13.7379 31.0662 13.0649 23.4951 12.7284 20.4666L18.7853 18.9524C19.4089 24.253 20.5237 34.5518 20.3627 36.3562C21.1398 34.4999 26.7275 23.8938 29.8896 22.9903C33.4228 21.9809 36.4512 20.9714 37.9655 21.4761C39.4797 21.9809 38.9749 25.0093 39.4797 26.0188C39.8835 26.8264 43.6859 27.1965 45.0318 27.0283C46.0413 25.6823 48.3631 22.9903 49.5745 22.9903C51.0887 22.9903 54.6219 24.5046 55.6314 32.5804C56.6409 40.6563 59.1646 52.2653 59.6693 54.789C60.0731 56.808 60.847 59.3317 61.1835 60.3412L55.6314 61.3506L51.0887 43.18C50.584 41.161 48.565 33.5899 48.565 32.5804V40.1515C48.565 42.5743 46.2096 47.5544 45.0318 49.7416L37.9655 45.7037L29.8896 50.7511L26.3564 47.2179Z" fill="#EDD925"/>
<path d="M31.4038 30.5615V35.1041M31.4038 35.1041V44.6942L26.3564 47.2179L29.8896 50.7511L37.9655 45.7037L45.0318 49.7416C46.2096 47.5544 48.565 42.5743 48.565 40.1515C48.565 37.1231 48.565 31.5709 48.565 32.5804C48.565 33.5899 50.584 41.161 51.0887 43.18C51.4925 44.7951 54.2854 55.9667 55.6314 61.3506L61.1835 60.3412C60.847 59.3317 60.0731 56.808 59.6693 54.789C59.1646 52.2653 56.6409 40.6563 55.6314 32.5804C54.6219 24.5046 51.0887 22.9903 49.5745 22.9903C48.3631 22.9903 46.0413 25.6823 45.0318 27.0283C43.6859 27.1965 39.8835 26.8264 39.4797 26.0188C38.9749 25.0093 39.4797 21.9809 37.9655 21.4761C36.4512 20.9714 33.4228 21.9809 29.8896 22.9903C26.3564 23.9998 19.7948 37.1231 20.2995 36.6183C20.7033 36.2145 19.4583 24.6728 18.7853 18.9524L12.7284 20.4666C13.0649 23.4951 13.7379 31.0662 13.7379 37.1231C13.7379 44.6942 20.8043 42.6752 22.3185 42.1705C23.5299 41.7667 28.8801 37.2913 31.4038 35.1041Z" stroke="#EDD925"/>
<path d="M0.614511 47.7226C1.62393 53.2748 8.1856 55.9667 11.214 58.8269L13.7379 64.3791C18.6171 62.6966 28.3754 59.6345 28.3754 60.8459C28.3754 62.3601 44.5268 70.9407 46.0411 58.8269C47.5553 46.7131 43.5176 44.6942 39.4797 43.6847C36.2493 42.8771 30.2261 47.2179 28.3754 48.7321C27.0294 47.7226 21.7127 44.2904 13.2331 42.6752C2.63355 40.6563 -0.113393 43.7189 0.614511 47.7226Z" fill="black" stroke="black"/>
<g filter="url(#filter0_f_148_1131)">
<path d="M9.08533 43.4077L21.1991 52.9978" stroke="#817070" stroke-opacity="0.5" stroke-width="0.5"/>
</g>
<g filter="url(#filter1_f_148_1131)">
<path d="M14.8914 58.3904C20.4699 54.7173 32.0139 47.524 33.562 48.1366" stroke="#817070" stroke-opacity="0.5" stroke-width="0.5"/>
</g>
<circle cx="41.4987" cy="9.86709" r="0.504741" fill="black"/>
<circle cx="38.4702" cy="9.86709" r="0.504741" fill="black"/>
<path d="M22.2086 7.0665C21.8048 6.25891 18.1707 7.57124 16.6564 8.58072L18.6754 19.685C20.5261 19.5168 22.9152 19.0793 23.7228 18.6755C24.7323 18.1708 22.7133 8.07598 22.2086 7.0665Z" fill="#3C3636" stroke="black" stroke-width="0.5"/>
<defs>
<filter id="filter0_f_148_1131" x="6.90962" y="41.1911" width="16.4652" height="14.0233" filterUnits="userSpaceOnUse" color-interpolation-filters="sRGB">
<feFlood flood-opacity="0" result="BackgroundImageFix"/>
<feBlend mode="normal" in="SourceGraphic" in2="BackgroundImageFix" result="shape"/>
<feGaussianBlur stdDeviation="1" result="effect1_foregroundBlur_148_1131"/>
</filter>
<filter id="filter1_f_148_1131" x="12.7336" y="45.8284" width="22.9403" height="14.7918" filterUnits="userSpaceOnUse" color-interpolation-filters="sRGB">
<feFlood flood-opacity="0" result="BackgroundImageFix"/>
<feBlend mode="normal" in="SourceGraphic" in2="BackgroundImageFix" result="shape"/>
<feGaussianBlur stdDeviation="1" result="effect1_foregroundBlur_148_1131"/>
</filter>
</defs>
</svg>
